<svg width="185" height="193" viewBox="0 0 185 193" xmlns="http://www.w3.org/2000/svg"><title>Icon 3</title><g transform="translate(1 1)" fill="none" fill-rule="evenodd"><circle fill="#FFF" cx="95" cy="103" r="89"/><circle stroke="#EC008C" stroke-width="2" cx="87" cy="87" r="87"/><circle fill="#FFF33D" cx="84" cy="82" r="74"/><g stroke="#EC008C" stroke-width="3" stroke-linejoin="round"><path d="M62.998 109.837c3.524-1.33 7.665-2.335 12.196-2.931l.007.006c-4.538.59-8.682 1.595-12.203 2.925zm21.56-72.332c-26.497 0-48.053 21.558-48.053 48.054 0 13.515 5.617 25.735 14.63 34.477.826-4.09 5.263-7.707 11.86-10.2.715 7.9 10.093 14.16 21.563 14.16 11.461 0 20.841-6.253 21.557-14.153-.062-.026-.119-.047-.182-.073-.3-.11-.606-.22-.909-.327-.106-.03-.206-.07-.31-.107-.412-.135-.827-.275-1.253-.4-.111-.035-.222-.067-.332-.103-.35-.099-.71-.205-1.068-.3-.097-.034-.195-.058-.301-.086a59.886 59.886 0 0 0-7.844-1.535v-.006c2.781.364 5.412.886 7.844 1.541.106.028.204.052.3.085.36.096.72.202 1.069.301.11.036.221.068.332.103.426.125.84.265 1.252.4.105.037.205.076.311.107a106.105 106.105 0 0 1 1.09.394v.006c6.602 2.486 11.042 6.1 11.873 10.183 9.009-8.737 14.62-20.952 14.62-34.467 0-26.496-21.554-48.054-48.049-48.054z"/><path d="M64.359 109.349c.348-.116.704-.227 1.06-.343.131-.033.253-.077.382-.119.397-.118.8-.23 1.205-.341.091-.026.174-.054.26-.081a63.13 63.13 0 0 1 1.372-.345c.041-.013.08-.023.12-.033a62.042 62.042 0 0 1 6.436-1.181 13.137 13.137 0 0 1-.142-1.812v-7.773a15.064 15.064 0 0 0 9.506 3.368 15.04 15.04 0 0 0 9.502-3.368v7.773c0 .618-.057 1.223-.145 1.812 2.26.296 4.421.696 6.457 1.186.025.005.047.014.072.015.48.122.956.24 1.421.368.063.017.123.032.184.05.432.118.861.244 1.277.37.09.023.173.057.262.081 2.974.924 5.607 2.052 7.784 3.349-1.958-13.014-3.912-26.028-5.867-39.04-2.199-12.323-11.596-19.931-20.947-19.931-9.35 0-18.748 7.608-20.948 19.931l-5.865 39.04c1.777-1.06 3.866-2.012 6.198-2.825.14-.05.276-.099.416-.151z"/><path d="M84.558 133.61c-26.497 0-48.053-21.556-48.053-48.052 0-26.495 21.556-48.052 48.053-48.052 26.495 0 48.05 21.557 48.05 48.052 0 26.496-21.555 48.051-48.05 48.051z"/><path d="M105.832 75.461c-.11-.725-.222-1.454-.327-2.176-2.199-12.323-11.596-19.93-20.947-19.93-9.35 0-18.747 7.607-20.948 19.93a355 355 0 0 0-.323 2.176H99.82m-30.38 0v10.107c0 8.351 6.77 15.12 15.118 15.12 8.35 0 15.12-6.769 15.12-15.12V75.461h-30.24z"/><path d="M79.386 89.232v2.513c0 2.076 2.33 3.758 5.203 3.758 2.872 0 5.202-1.682 5.202-3.758v-2.513H79.386z"/></g></g></svg>