<svg width="60" height="60" viewBox="0 0 60 60" xmlns="http://www.w3.org/2000/svg"><title>Combined Shape</title><path d="M30 55.714C15.82 55.714 4.286 44.18 4.286 30 4.286 15.82 15.82 4.286 30 4.286 44.18 4.286 55.714 15.82 55.714 30c0 14.18-11.535 25.714-25.714 25.714M30 0C13.431 0 0 13.431 0 30c0 16.569 13.431 30 30 30 16.569 0 30-13.431 30-30C60 13.431 46.569 0 30 0zm17.41 32.499a2.498 2.498 0 1 1 0-4.997 2.498 2.498 0 0 1 0 4.997zm-.524 8.014a2.5 2.5 0 0 1-4.235-2.655 2.502 2.502 0 0 1 3.446-.789 2.497 2.497 0 0 1 .789 3.444zm-5.46-23.829a2.5 2.5 0 0 1-4.232-2.657 2.498 2.498 0 0 1 4.232 2.657zm-1.348 30.414a2.501 2.501 0 0 1-3.416-.902 2.5 2.5 0 0 1 .902-3.418 2.502 2.502 0 0 1 3.418.904 2.5 2.5 0 0 1-.904 3.416zm-9.952 2.685a2.498 2.498 0 1 1 0-4.997 2.498 2.498 0 0 1 0 4.997zm-7.442-32.565a2.498 2.498 0 0 1-3.415-.902 2.496 2.496 0 0 1 .902-3.414 2.498 2.498 0 0 1 2.514 4.316zm.373 28.753a2.5 2.5 0 0 1-4.234-2.655 2.5 2.5 0 0 1 4.234 2.655zm-5.46-23.829a2.497 2.497 0 1 1-4.231-2.653 2.497 2.497 0 0 1 4.231 2.653zm-1.153 18.714a2.499 2.499 0 1 1-2.513-4.32 2.499 2.499 0 0 1 2.513 4.32zM10.341 30a2.498 2.498 0 1 1 4.997 0 2.498 2.498 0 0 1-4.997 0zm17.516-17.143a2.144 2.144 0 0 1 4.286 0V26.97l8.462 8.464a2.14 2.14 0 0 1 0 3.03 2.14 2.14 0 0 1-3.03 0l-9.088-9.09a2.167 2.167 0 0 1-.63-1.517v-15zm15.952 6.287a2.498 2.498 0 1 1 2.511 4.316 2.498 2.498 0 0 1-2.511-4.316zM30 8.571C18.184 8.571 8.571 18.184 8.571 30c0 11.816 9.613 21.429 21.429 21.429 11.816 0 21.429-9.613 21.429-21.429 0-11.816-9.613-21.429-21.429-21.429z" fill-rule="evenodd"/></svg>