<svg width="217" height="204" viewBox="0 0 217 204" xmlns="http://www.w3.org/2000/svg" xmlns:xlink="http://www.w3.org/1999/xlink"><title>Icon 2</title><defs><path id="a" d="M0 116.745h87.006V.1H0z"/></defs><g fill="none" fill-rule="evenodd"><path stroke="#FFF33D" stroke-width="2" d="M188.75 160.5L2 175.25 97 26z"/><path fill="#FFF" d="M82.75.749L10.5 203.999l206-64.5z"/><path fill="#77CCCA" d="M108 11.499l-84.5 167 184-33z"/><g transform="translate(70 48)"><path fill="#FFF33D" d="M50.047 7.268h3.3V.1h-3.3zm-13.512 4.789l-3.584-6.208L35.81 4.2l3.584 6.208zm-9.307 10.904l-6.21-3.584 1.65-2.859 6.21 3.584zm52.609 13.032h7.169v-3.301h-7.17zM76.695 22.04l-1.648-2.86 6.21-3.58 1.649 2.857zm-9.693-10.515l-2.858-1.65 3.584-6.207 2.858 1.65zm-31.885 105.22h-3.3v-15.378h-12.42c-5.808 0-10.533-4.727-10.533-10.537V79.473H0L11.843 58.96a29.327 29.327 0 0 1-.022-1.08c0-13.216 7.702-25.46 19.62-31.195l1.431 2.974c-10.783 5.188-17.75 16.265-17.75 28.222 0 .475.017.947.037 1.419l.02.48-9.463 16.392h6.448V90.83c0 3.991 3.243 7.237 7.232 7.237h15.721v18.678zm36.275 0h-3.3V80.47l.481-.483c5.899-5.906 9.147-13.757 9.147-22.105 0-6.493-1.97-12.722-5.7-18.01l2.699-1.902c4.122 5.85 6.3 12.734 6.3 19.912 0 8.998-3.414 17.474-9.627 23.945v34.918z"/><path d="M42.828 66.042l-1.476-.738v-1.65 1.65l-1.636-.205c.097-.964.119-5.35-1.572-7.603-8.62-11.097-8.861-21.754-8.861-21.86 0-12.652 10.292-22.945 22.945-22.945s22.947 10.293 22.947 22.946c0 .104-.241 10.753-8.883 21.88-1.137 1.511-1.74 4.575-1.598 8.176l.005.197h-3.3c-.105-2.654.055-7.434 2.272-10.377 7.95-10.237 8.204-19.783 8.204-19.876 0-10.833-8.814-19.646-19.647-19.646-10.833 0-19.645 8.813-19.645 19.646 0 .093.248 9.641 8.184 19.856 2.74 3.652 2.376 9.92 2.061 10.549" fill="#FFF33D"/><path fill="#FFF33D" d="M45.234 66.066l-3.998-24.659 3.257-.528 3.998 24.66zm13.993 0l-3.257-.527 3.995-24.659 3.257.527z"/><path fill="#FFF33D" d="M44.961 46.687l-3.106-3.713 2.531-2.117.575.687 1.84-2.197 1.849 2.203 1.846-2.201 1.847 2.2 1.85-2.2 1.845 2.202 1.85-2.197 1.855 2.201.592-.703 2.524 2.127-3.116 3.697-1.853-2.2-1.854 2.204-1.846-2.199-1.849 2.2-1.846-2.199-1.844 2.2-1.846-2.198zM41.715 66.97a.178.178 0 0 0-.083.143c0 .081.071.123.114.135l.005 3.177c-.045.013-.12.056-.12.138 0 .082.073.123.117.136l.002 3.176c-.044.014-.118.056-.118.138 0 .086.077.14.151.144l1.582 1.648v.157c0 .415.342.751.761.751h16.206c.419 0 .76-.336.76-.75v-.158l1.583-1.648c.072-.003.15-.055.15-.144 0-.083-.073-.126-.116-.138l.002-3.176c.043-.013.114-.054.114-.136 0-.082-.073-.126-.117-.138l.005-3.177c.042-.012.112-.053.112-.135 0-.079-.065-.14-.15-.143h-20.96zm18.617 13.043H44.126a4.067 4.067 0 0 1-3.901-2.927 3.433 3.433 0 0 1-1.893-3.073c0-.62.169-1.212.47-1.725a3.398 3.398 0 0 1 0-3.45 3.402 3.402 0 0 1-.47-1.725 3.443 3.443 0 0 1 3.315-3.441l21.095-.001c1.927.078 3.383 1.59 3.383 3.442 0 .62-.17 1.213-.468 1.725a3.418 3.418 0 0 1 0 3.45 3.434 3.434 0 0 1-1.423 4.798 4.068 4.068 0 0 1-3.902 2.927z"/><mask id="b" fill="#fff"><use xlink:href="#a"/></mask><path fill="#FFF33D" mask="url(#b)" d="M41.283 72.426h17.325v-3.3H41.283z"/></g></g></svg>