<svg width="35" height="45" viewBox="0 0 35 45" xmlns="http://www.w3.org/2000/svg"><title>Page 1</title><path d="M28.333 21.667h5v-5h-5v5zm0 6.666h5v-5h-5v5zm0 6.667h5v-5h-5v5zm0 6.667h5v-5h-5v5zm-26.666 0h5v-5h-5v5zm0-6.667h5v-5h-5v5zm0-6.667h5v-5h-5v5zm0-6.666h5v-5h-5v5zm3.333-10h5v1.666C10 14.253 9.253 15 8.333 15H6.667C5.747 15 5 14.253 5 13.333v-1.666zm0-8.334c0-.92.747-1.666 1.667-1.666h1.666c.92 0 1.667.746 1.667 1.666V10H5V3.333zm3.333 38.334h5v-5h-5v5zm0-6.667h5v-5h-5v5zm0-6.667h5v-5h-5v5zm0-6.666h5v-5h-5v5zm6.667 20h5v-5h-5v5zM15 35h5v-5h-5v5zm0-6.667h5v-5h-5v5zm0-6.666h5v-5h-5v5zm6.667 20h5v-5h-5v5zm0-6.667h5v-5h-5v5zm0-6.667h5v-5h-5v5zm0-6.666h5v-5h-5v5zm3.333-10h5v1.666c0 .92-.745 1.667-1.667 1.667h-1.666A1.666 1.666 0 0 1 25 13.333v-1.666zm0-8.334c0-.92.745-1.666 1.667-1.666h1.666c.922 0 1.667.746 1.667 1.666V10h-5V3.333zm6.667 3.334V3.333A3.337 3.337 0 0 0 28.333 0h-1.666a3.338 3.338 0 0 0-3.334 3.333v3.334H11.667V3.333A3.337 3.337 0 0 0 8.333 0H6.667a3.337 3.337 0 0 0-3.334 3.333v3.334H0V45h35V6.667h-3.333z" fill="#231F1F" fill-rule="evenodd"/></svg>