<svg width="204" height="204" viewBox="0 0 204 204" xmlns="http://www.w3.org/2000/svg" xmlns:xlink="http://www.w3.org/1999/xlink"><title>Icon 1</title><defs><path id="a" d="M13 26h166v166H13z"/><mask id="b" x="0" y="0" width="166" height="166" fill="#fff"><use xlink:href="#a"/></mask></defs><g fill="none" fill-rule="evenodd"><path fill="#FFF" d="M25.401.35L203.65 25.401 178.599 203.65.35 178.599z"/><use stroke="#FFC50C" mask="url(#b)" stroke-width="4" transform="rotate(-8 96 109)" xlink:href="#a"/><path fill="#00B2F0" d="M28.641 47.045l128.001-17.99 17.99 128.001-128.001 17.99z"/><path d="M59.804 90.699h84.985" stroke="#FFE183" stroke-width="3" stroke-linecap="round" stroke-linejoin="round"/><path fill="#FFE183" d="M73.967 104.86h5.667v-5.663h-5.667zm8.5 0h5.667v-5.663h-5.667zm8.498 0h5.666v-5.663h-5.666zm8.499 0h5.668v-5.663h-5.668zm8.5 0h5.665v-5.663h-5.665zm8.496 0h5.667v-5.663h-5.667zm8.5 0h5.666v-5.663h-5.666zm-50.993 8.501h5.667v-5.666h-5.667zm8.5 0h5.667v-5.666h-5.667zm8.498 0h5.666v-5.666h-5.666zm8.499 0h5.668v-5.666h-5.668zm8.5 0h5.665v-5.666h-5.665zm8.496 0h5.667v-5.666h-5.667zm8.5 0h5.666v-5.666h-5.666zm-50.993 8.499h5.667v-5.664h-5.667zm8.5 0h5.667v-5.664h-5.667zm8.498 0h5.666v-5.664h-5.666zm8.499 0h5.668v-5.664h-5.668zm8.5 0h5.665v-5.664h-5.665zm8.496 0h5.667v-5.664h-5.667zm8.5 0h5.666v-5.664h-5.666zm-50.993 8.498h5.667v-5.666h-5.667zm8.5 0h5.667v-5.666h-5.667zm8.498 0h5.666v-5.666h-5.666zm8.499 0h5.668v-5.666h-5.668zm8.5 0h5.665v-5.666h-5.665zm8.496 0h5.667v-5.666h-5.667zm8.5 0h5.666v-5.666h-5.666z"/><path stroke="#FFE183" stroke-width="3" stroke-linecap="round" d="M76.802 65.203v16.995-11.331zm50.991 0v16.995-11.331z"/><path stroke="#FFE183" stroke-width="3" stroke-linecap="round" stroke-linejoin="round" d="M59.804 138.858h84.985V73.702H59.804z"/></g></svg>