<svg width="160" height="11" viewBox="0 0 160 11" xmlns="http://www.w3.org/2000/svg"><title>Page 1</title><g fill="#221F20" fill-rule="evenodd"><path d="M3.075 4.521h6.392c.816 0 1.218-.363 1.204-1.089-.013-.296-.153-.538-.418-.726a1.505 1.505 0 0 0-.889-.283H3.075v2.098zm7.12 2.138h-7.12v3.544H0V.244h10.101c1.44 0 2.54.346 3.3 1.04a2.75 2.75 0 0 1 .936 2.117c0 .977-.333 1.758-1 2.342-.72.611-1.768.916-3.142.916zm9.58-1.119h3.83l-1.916-3.136-1.914 3.136zm-6.415 4.663L20.08.245h3.28l6.66 9.958h-3.585l-1.425-2.32h-6.7l-1.365 2.322H13.36zM43.338.244v2.18H37.33v7.78h-3.075v-7.78h-6.028V.244zm2.933 9.96h3.116V.244h-3.116zm6.374-.001V.244h12.117v2.18h-9v1.425h7.575L62.298 6.11h-6.537v1.731h9.001v2.362zM79.243.244h3.116v9.96h-3.121l-8.08-6.879v6.878h-3.116V.245h3.503l7.698 6.476zm16.657 0l1.474 2.18h-2.98l-6.028 7.78h-3.075l6.028-7.78h-6.028V.244z"/><path d="M93.027 5.54h3.164l-1.363-2.313h3.113l4.665 6.977h-3.584L97.596 7.88h-6.41zM116.923.244v2.18h-6.008v7.78h-3.075v-7.78h-6.028V.244zm2.932 9.96h3.116V.244h-3.116zm9.674-4.949c0 .814.489 1.494 1.466 2.035.923.518 2.009.775 3.259.775 1.249 0 2.345-.264 3.289-.794.943-.53 1.415-1.202 1.415-2.016 0-.829-.482-1.52-1.446-2.077-.923-.516-2.01-.774-3.258-.774-1.25 0-2.336.258-3.26.774-.976.557-1.465 1.248-1.465 2.077m13.075-.02c0 1.683-1.012 3.02-3.035 4.011-1.643.801-3.421 1.201-5.336 1.201-1.901 0-3.672-.4-5.315-1.2-2.023-1.005-3.034-2.343-3.034-4.013 0-1.683 1.01-3.02 3.034-4.011C130.56.407 132.332 0 134.233 0c1.915 0 3.693.407 5.336 1.222 2.023.991 3.035 2.329 3.035 4.012m14.133-4.99h3.116v9.96h-3.12l-8.08-6.879v6.878h-3.117V.245h3.503l7.698 6.476z"/></g></svg>