<?xml version="1.0" encoding="UTF-8" standalone="no"?>
<svg width="60px" height="60px" viewBox="0 0 60 60" version="1.1" xmlns="http://www.w3.org/2000/svg" xmlns:xlink="http://www.w3.org/1999/xlink">
    <!-- Generator: Sketch 3.7.2 (28276) - http://www.bohemiancoding.com/sketch -->
    <title>Fill 1</title>
    <desc>Created with Sketch.</desc>
    <defs></defs>
    <g id="Page-1" stroke="none" stroke-width="1" fill="none" fill-rule="evenodd">
        <g id="Fill-1" fill="#000000">
            <path d="M51.5315135,0.000162162162 L8.28827027,0.000162162162 C3.71097297,0.000162162162 0.000162162162,3.71097297 0.000162162162,8.28827027 C0.000162162162,12.8661081 3.71097297,16.5769189 8.28827027,16.5769189 L31.5217838,16.5769189 L2.42772973,45.670973 C0.92772973,47.170973 0.000162162162,49.2428649 0.000162162162,51.5315135 C0.000162162162,56.1093514 3.71097297,59.8201622 8.28827027,59.8201622 C10.5769189,59.8201622 12.6493514,58.8925946 14.1488108,57.3925946 L43.2434054,28.298 L43.2434054,51.5315135 C43.2434054,56.1093514 46.9542162,59.8201622 51.5315135,59.8201622 C56.1088108,59.8201622 59.8196216,56.1093514 59.8196216,51.5315135 L59.8196216,8.28827027 C59.8196216,3.71097297 56.1088108,0.000162162162 51.5315135,0.000162162162"></path>
        </g>
    </g>
</svg>