<?xml version="1.0" encoding="UTF-8" standalone="no"?>
<svg width="185px" height="193px" viewBox="0 0 185 193" version="1.1" xmlns="http://www.w3.org/2000/svg" xmlns:xlink="http://www.w3.org/1999/xlink">
    <!-- Generator: Sketch 3.7.2 (28276) - http://www.bohemiancoding.com/sketch -->
    <title>Icon 3</title>
    <desc>Created with Sketch.</desc>
    <defs></defs>
    <g id="Page-1" stroke="none" stroke-width="1" fill="none" fill-rule="evenodd">
        <g id="Icon-3" transform="translate(1.000000, 1.000000)">
            <circle id="Oval-3" fill="#FFFFFF" cx="95" cy="103" r="89"></circle>
            <circle id="Oval-2" stroke="#EC008C" stroke-width="2" cx="87" cy="87" r="87"></circle>
            <circle id="Oval-1" fill="#FFF33D" cx="84" cy="82" r="74"></circle>
            <g id="Face-Icon" transform="translate(36.000000, 37.000000)" stroke="#EC008C" stroke-width="3" stroke-linejoin="round">
                <path d="M26.9980302,72.8367948 C30.5223635,71.5070865 34.663051,70.5017219 39.1937594,69.905576 L39.2008323,69.9116385 C34.663051,70.5017219 30.5193323,71.5070865 26.9980302,72.8367948 L26.9980302,72.8367948 Z M48.558301,0.505107292 C22.0611344,0.505107292 0.504905208,22.0633573 0.504905208,48.5585031 C0.504905208,62.0738365 6.12181146,74.2938156 15.1347281,83.0359406 C15.961249,78.9467844 20.3979885,75.3294927 26.994999,72.8367948 C27.710374,80.7362323 37.088051,86.9957635 48.558301,86.9957635 C60.0194573,86.9957635 69.3991552,80.7433052 70.1145302,72.8428573 C70.0528948,72.8165865 69.9963115,72.7963781 69.9326552,72.7701073 C69.6325615,72.6599719 69.3274156,72.5508469 69.0242906,72.4427323 C68.9181969,72.4124198 68.8181656,72.3730135 68.7130823,72.3356281 C68.3018427,72.2012427 67.8865615,72.0607948 67.461176,71.9355031 C67.3500302,71.901149 67.2388844,71.8688156 67.128749,71.833451 C66.7791448,71.7344302 66.4194365,71.6283365 66.0607385,71.5323469 C65.9637385,71.4990031 65.8657281,71.4747531 65.7596344,71.4474719 C63.3275615,70.7917115 60.6974469,70.2733677 57.9157698,69.9116385 L57.9157698,69.905576 C60.6974469,70.2703365 63.3275615,70.7917115 65.7596344,71.4474719 C65.8657281,71.4747531 65.9637385,71.4990031 66.0607385,71.5323469 C66.4194365,71.6283365 66.7791448,71.7344302 67.128749,71.833451 C67.2388844,71.8688156 67.3500302,71.901149 67.461176,71.9355031 C67.8865615,72.0607948 68.3018427,72.2012427 68.7130823,72.3356281 C68.8181656,72.3730135 68.9181969,72.4124198 69.0242906,72.4427323 C69.3274156,72.5508469 69.6325615,72.6599719 69.9326552,72.7701073 C69.9922698,72.7923365 70.0589573,72.8165865 70.1145302,72.8367948 L70.1145302,72.8428573 C76.7155823,75.3294927 81.1563635,78.9427427 81.986926,83.0258365 C90.995801,74.2887635 96.6076552,62.0738365 96.6076552,48.5585031 C96.6076552,22.0633573 75.0534469,0.505107292 48.558301,0.505107292 L48.558301,0.505107292 Z" id="Stroke-1"></path>
                <path d="M28.3587583,72.3488646 C28.7073521,72.2326667 29.0630188,72.1215208 29.4186854,72.0063333 C29.5500396,71.9729896 29.6723,71.9285312 29.8006229,71.8871042 C30.1977167,71.7688854 30.6018833,71.6577396 31.00605,71.5455833 C31.0969875,71.5203229 31.1798417,71.4920312 31.2667375,71.46475 C31.7143521,71.3465312 32.1751021,71.2313437 32.6378729,71.1201979 C32.6793,71.1070625 32.7176958,71.0969583 32.7581125,71.0868542 C34.7870292,70.5978125 36.9422479,70.2017292 39.1944667,69.9056771 C39.1126229,69.3166042 39.0519979,68.712375 39.0519979,68.094 L39.0519979,60.3208646 C41.6487688,62.4235417 44.9588938,63.6885833 48.5579979,63.6885833 C52.1651854,63.6885833 55.4611646,62.4235417 58.0599563,60.3208646 L58.0599563,68.094 C58.0599563,68.712375 58.0033729,69.3166042 57.9154667,69.9056771 C60.1757688,70.2017292 62.3360396,70.6018542 64.3720292,71.0919062 C64.3972896,71.0969583 64.4185083,71.1060521 64.4437688,71.1070625 C64.9237167,71.2293229 65.3996229,71.3465312 65.865425,71.4748542 C65.9280708,71.4920312 65.9876854,71.5071875 66.0493208,71.525375 C66.4807688,71.6425833 66.9101958,71.7688854 67.3264875,71.8941771 C67.4164146,71.9184271 67.4992688,71.9517708 67.5881854,71.9760208 C70.5618417,72.8995417 73.1949875,74.0281771 75.3724354,75.3245417 C73.4142479,62.3113854 71.4601021,49.2972187 69.5049458,36.2850729 C67.3062792,23.9620312 57.9094042,16.3535937 48.5579979,16.3535937 C39.2076021,16.3535937 29.8097167,23.9620312 27.6100396,36.2850729 C25.6558938,49.2972187 23.7007375,62.3113854 21.7445708,75.3245417 C23.5218938,74.2646146 25.6114354,73.3128021 27.9434771,72.5004271 C28.0829146,72.4509167 28.2193208,72.4014062 28.3587583,72.3488646 L28.3587583,72.3488646 Z" id="Stroke-3"></path>
                <path d="M48.5582,96.6092719 C22.0610333,96.6092719 0.504804167,75.0540531 0.504804167,48.5578969 C0.504804167,22.062751 22.0610333,0.505511458 48.5582,0.505511458 C75.0533458,0.505511458 96.6075542,22.062751 96.6075542,48.5578969 C96.6075542,75.0540531 75.0533458,96.6092719 48.5582,96.6092719 L48.5582,96.6092719 Z" id="Stroke-5"></path>
                <path d="M69.8322198,38.4610052 C69.7220844,37.735526 69.6099281,37.0070156 69.5048448,36.2845677 C67.3061781,23.961526 57.9093031,16.354099 48.5578969,16.354099 C39.207501,16.354099 29.810626,23.961526 27.6099385,36.2845677 C27.4998031,37.0070156 27.392699,37.735526 27.2866052,38.4610052 L63.821251,38.4610052" id="Stroke-7"></path>
                <path d="M33.4394365,38.4610052 L33.4394365,48.5682031 C33.4394365,56.9192969 40.2102385,63.6880781 48.558301,63.6880781 C56.907374,63.6880781 63.6771656,56.9192969 63.6771656,48.5682031 L63.6771656,38.4610052 L33.4394365,38.4610052 L33.4394365,38.4610052 Z" id="Stroke-9"></path>
                <path d="M43.3858771,52.2317719 L43.3858771,54.7446781 C43.3858771,56.8210844 45.7158979,58.5034281 48.5885125,58.5034281 C51.4611271,58.5034281 53.7911479,56.8210844 53.7911479,54.7446781 L53.7911479,52.2317719 L43.3858771,52.2317719 L43.3858771,52.2317719 Z" id="Stroke-11"></path>
            </g>
        </g>
    </g>
</svg>