<?xml version="1.0" encoding="UTF-8" standalone="no"?>
<svg width="217px" height="204px" viewBox="0 0 217 204" version="1.1" xmlns="http://www.w3.org/2000/svg" xmlns:xlink="http://www.w3.org/1999/xlink">
    <!-- Generator: Sketch 3.7.2 (28276) - http://www.bohemiancoding.com/sketch -->
    <title>Icon 2</title>
    <desc>Created with Sketch.</desc>
    <defs>
        <polygon id="path-1" points="0 116.7451 87.0056 116.7451 87.0056 0.1 0 0.1"></polygon>
    </defs>
    <g id="Page-1" stroke="none" stroke-width="1" fill="none" fill-rule="evenodd">
        <g id="Icon-2" transform="translate(2.000000, 0.000000)">
            <polygon id="Path-58" stroke="#FFF33D" stroke-width="2" points="186.75 160.5 0 175.25 95 26"></polygon>
            <polygon id="Path-55" fill="#FFFFFF" points="80.75 0.749023438 8.5 203.999023 214.5 139.499023"></polygon>
            <polygon id="Path-55" fill="#77CCCA" points="106 11.4990234 21.5 178.499023 205.5 145.499023"></polygon>
            <g id="Head-Icon" transform="translate(68.000000, 48.000000)">
                <polygon id="Fill-1" fill="#FFF33D" points="50.0467 7.2676 53.3478 7.2676 53.3478 0.1 50.0467 0.1"></polygon>
                <polygon id="Fill-2" fill="#FFF33D" points="36.53529 12.05656 32.95149 5.84926 35.80929 4.19926 39.39309 10.40656"></polygon>
                <polygon id="Fill-3" fill="#FFF33D" points="27.22819 22.96097 21.01869 19.37717 22.66869 16.51827 28.87819 20.10207"></polygon>
                <polygon id="Fill-4" fill="#FFF33D" points="79.8369 35.993 87.0056 35.993 87.0056 32.6919 79.8369 32.6919"></polygon>
                <polygon id="Fill-5" fill="#FFF33D" points="76.69497 22.03983 75.04717 19.18093 81.25777 15.59933 82.90557 18.45713"></polygon>
                <polygon id="Fill-6" fill="#FFF33D" points="67.00221 11.52482 64.14441 9.87482 67.72821 3.66752 70.58601 5.31752"></polygon>
                <path d="M35.11728,116.7451 L31.81728,116.7451 L31.81728,101.3671 L19.39608,101.3671 C13.58918,101.3671 8.86358,96.6404 8.86358,90.8302 L8.86358,79.4727 L-0.00022,79.4727 L11.84348,58.961 C11.83028,58.6024 11.82148,58.2427 11.82148,57.8819 C11.82148,44.6654 19.52258,32.4202 31.44108,26.6859 L32.87218,29.6603 C22.08888,34.8479 15.12148,45.9249 15.12148,57.8819 C15.12148,58.3571 15.13908,58.829 15.15888,59.3009 L15.17978,59.7805 L5.71648,76.1727 L12.16358,76.1727 L12.16358,90.8302 C12.16358,94.821 15.40748,98.0671 19.39608,98.0671 L35.11728,98.0671 L35.11728,116.7451 Z" id="Fill-7" fill="#FFF33D"></path>
                <path d="M71.39154,116.7451 L68.09154,116.7451 L68.09154,80.4704 L68.57334,79.9875 C74.47154,74.0805 77.71984,66.2298 77.71984,57.8819 C77.71984,51.3886 75.74974,45.1604 72.02074,39.8716 L74.71904,37.9697 C78.84074,43.8195 81.01984,50.7044 81.01984,57.8819 C81.01984,66.8799 77.60544,75.3565 71.39154,81.8267 L71.39154,116.7451 Z" id="Fill-10" fill="#FFF33D"></path>
                <path d="M42.82806,66.04192 L41.35186,65.30382 L41.35186,63.65492 L41.35186,65.30492 L39.71616,65.09922 C39.81296,64.13452 39.83496,59.74882 38.14426,57.49602 C29.52356,46.39922 29.28266,35.74242 29.28266,35.63682 C29.28266,22.98352 39.57536,12.69082 52.22756,12.69082 C64.88086,12.69082 75.17466,22.98352 75.17466,35.63682 C75.17466,35.74132 74.93376,46.39042 66.29216,57.51692 C65.15476,59.02832 64.55196,62.09182 64.69386,65.69322 L64.69936,65.89012 L61.39936,65.89012 C61.29376,63.23582 61.45436,58.45632 63.67086,55.51272 C71.62056,45.27612 71.87466,35.73032 71.87466,35.63682 C71.87466,24.80402 63.06146,15.99082 52.22756,15.99082 C41.39476,15.99082 32.58266,24.80402 32.58266,35.63682 C32.58266,35.73032 32.83126,45.27832 40.76666,55.49292 C43.50786,59.14492 43.14266,65.41382 42.82806,66.04192" id="Fill-12" fill="#FFF33D"></path>
                <polygon id="Fill-14" fill="#FFF33D" points="45.23431 66.06612 41.23581 41.40742 44.49291 40.87942 48.49141 65.53812"></polygon>
                <polygon id="Fill-16" fill="#FFF33D" points="59.22708 66.06557 55.96998 65.53867 59.96518 40.87997 63.22228 41.40687"></polygon>
                <polygon id="Fill-18" fill="#FFF33D" points="44.9614 46.68665 41.855 42.97415 44.3861 40.85665 44.9614 41.54415 46.8006 39.34745 48.6497 41.54965 50.4955 39.34855 52.3435 41.54965 54.1926 39.34965 56.0384 41.55075 57.8875 39.35405 59.7432 41.55515 60.335 40.85225 62.8595 42.97855 59.7432 46.67565 57.8897 44.47675 56.0362 46.68005 54.1904 44.48115 52.3413 46.68115 50.4955 44.48225 48.6508 46.68225 46.805 44.48445"></polygon>
                <path d="M41.71519,66.97065 C41.70859,66.97175 41.63159,67.02675 41.63159,67.11255 C41.63159,67.19395 41.70309,67.23575 41.74599,67.24785 L41.75149,70.42465 C41.70639,70.43785 41.63159,70.48075 41.63159,70.56325 C41.63159,70.64465 41.70419,70.68645 41.74819,70.69855 L41.75039,73.87535 C41.70639,73.88855 41.63159,73.93145 41.63159,74.01285 C41.63159,74.09865 41.70859,74.15365 41.78339,74.15695 L43.36519,75.80475 L43.36519,75.96205 C43.36519,76.37675 43.70729,76.71335 44.12639,76.71335 L60.33159,76.71335 C60.75069,76.71335 61.09169,76.37675 61.09169,75.96205 L61.09169,75.80475 L62.67459,74.15695 C62.74719,74.15365 62.82529,74.10195 62.82529,74.01285 C62.82529,73.93035 62.75159,73.88745 62.70869,73.87535 L62.71089,70.69855 C62.75379,70.68645 62.82529,70.64465 62.82529,70.56325 C62.82529,70.48075 62.75159,70.43675 62.70759,70.42465 L62.71309,67.24785 C62.75489,67.23575 62.82529,67.19505 62.82529,67.11255 C62.82529,67.03445 62.76039,66.97285 62.67459,66.96955 L41.71519,66.97065 Z M60.33159,80.01335 L44.12639,80.01335 C42.27839,80.01335 40.71419,78.77475 40.22469,77.08625 C39.09609,76.51865 38.33159,75.35485 38.33159,74.01285 C38.33159,73.39245 38.50099,72.80065 38.80239,72.28805 C38.50099,71.77545 38.33159,71.18365 38.33159,70.56325 C38.33159,69.94395 38.50099,69.35215 38.80239,68.83845 C38.50099,68.32585 38.33159,67.73295 38.33159,67.11255 C38.33159,65.26015 39.78799,63.74875 41.64699,63.67175 L62.74169,63.67065 C64.66889,63.74875 66.12529,65.26015 66.12529,67.11255 C66.12529,67.73295 65.95589,68.32585 65.65669,68.83845 C65.95589,69.35215 66.12529,69.94395 66.12529,70.56325 C66.12529,71.18365 65.95589,71.77545 65.65669,72.28805 C65.95589,72.80065 66.12529,73.39245 66.12529,74.01285 C66.12529,75.35485 65.36079,76.51865 64.23329,77.08625 C63.74269,78.77475 62.17959,80.01335 60.33159,80.01335 L60.33159,80.01335 Z" id="Fill-20" fill="#FFF33D"></path>
                <mask id="mask-2" fill="white">
                    <use xlink:href="#path-1"></use>
                </mask>
                <g id="Clip-23"></g>
                <polygon id="Fill-22" fill="#FFF33D" mask="url(#mask-2)" points="41.283 72.4261 58.608 72.4261 58.608 69.1261 41.283 69.1261"></polygon>
            </g>
        </g>
    </g>
</svg>