<?xml version="1.0" encoding="UTF-8" standalone="no"?>
<svg width="35px" height="45px" viewBox="0 0 35 45" version="1.1" xmlns="http://www.w3.org/2000/svg" xmlns:xlink="http://www.w3.org/1999/xlink">
    <!-- Generator: Sketch 3.7.2 (28276) - http://www.bohemiancoding.com/sketch -->
    <title>Page 1</title>
    <desc>Created with Sketch.</desc>
    <defs></defs>
    <g id="Page-1" stroke="none" stroke-width="1" fill="none" fill-rule="evenodd">
        <path d="M28.3333333,21.6666667 L33.3333333,21.6666667 L33.3333333,16.6666667 L28.3333333,16.6666667 L28.3333333,21.6666667 Z M28.3333333,28.3333333 L33.3333333,28.3333333 L33.3333333,23.3333333 L28.3333333,23.3333333 L28.3333333,28.3333333 Z M28.3333333,35 L33.3333333,35 L33.3333333,30 L28.3333333,30 L28.3333333,35 Z M28.3333333,41.6666667 L33.3333333,41.6666667 L33.3333333,36.6666667 L28.3333333,36.6666667 L28.3333333,41.6666667 Z M1.66666667,41.6666667 L6.66666667,41.6666667 L6.66666667,36.6666667 L1.66666667,36.6666667 L1.66666667,41.6666667 Z M1.66666667,35 L6.66666667,35 L6.66666667,30 L1.66666667,30 L1.66666667,35 Z M1.66666667,28.3333333 L6.66666667,28.3333333 L6.66666667,23.3333333 L1.66666667,23.3333333 L1.66666667,28.3333333 Z M1.66666667,21.6666667 L6.66666667,21.6666667 L6.66666667,16.6666667 L1.66666667,16.6666667 L1.66666667,21.6666667 Z M5,11.6666667 L10,11.6666667 L10,13.3333333 C10,14.2533333 9.25333333,15 8.33333333,15 L6.66666667,15 C5.74666667,15 5,14.2533333 5,13.3333333 L5,11.6666667 Z M5,3.33333333 C5,2.41333333 5.74666667,1.66666667 6.66666667,1.66666667 L8.33333333,1.66666667 C9.25333333,1.66666667 10,2.41333333 10,3.33333333 L10,10 L5,10 L5,3.33333333 Z M8.33333333,41.6666667 L13.3333333,41.6666667 L13.3333333,36.6666667 L8.33333333,36.6666667 L8.33333333,41.6666667 Z M8.33333333,35 L13.3333333,35 L13.3333333,30 L8.33333333,30 L8.33333333,35 Z M8.33333333,28.3333333 L13.3333333,28.3333333 L13.3333333,23.3333333 L8.33333333,23.3333333 L8.33333333,28.3333333 Z M8.33333333,21.6666667 L13.3333333,21.6666667 L13.3333333,16.6666667 L8.33333333,16.6666667 L8.33333333,21.6666667 Z M15,41.6666667 L20,41.6666667 L20,36.6666667 L15,36.6666667 L15,41.6666667 Z M15,35 L20,35 L20,30 L15,30 L15,35 Z M15,28.3333333 L20,28.3333333 L20,23.3333333 L15,23.3333333 L15,28.3333333 Z M15,21.6666667 L20,21.6666667 L20,16.6666667 L15,16.6666667 L15,21.6666667 Z M21.6666667,41.6666667 L26.6666667,41.6666667 L26.6666667,36.6666667 L21.6666667,36.6666667 L21.6666667,41.6666667 Z M21.6666667,35 L26.6666667,35 L26.6666667,30 L21.6666667,30 L21.6666667,35 Z M21.6666667,28.3333333 L26.6666667,28.3333333 L26.6666667,23.3333333 L21.6666667,23.3333333 L21.6666667,28.3333333 Z M21.6666667,21.6666667 L26.6666667,21.6666667 L26.6666667,16.6666667 L21.6666667,16.6666667 L21.6666667,21.6666667 Z M25,11.6666667 L30,11.6666667 L30,13.3333333 C30,14.2533333 29.255,15 28.3333333,15 L26.6666667,15 C25.745,15 25,14.2533333 25,13.3333333 L25,11.6666667 Z M25,3.33333333 C25,2.41333333 25.745,1.66666667 26.6666667,1.66666667 L28.3333333,1.66666667 C29.255,1.66666667 30,2.41333333 30,3.33333333 L30,10 L25,10 L25,3.33333333 Z M31.6666667,6.66666667 L31.6666667,3.33333333 C31.6666667,1.495 30.1716667,0 28.3333333,0 L26.6666667,0 C24.83,0 23.3333333,1.495 23.3333333,3.33333333 L23.3333333,6.66666667 L11.6666667,6.66666667 L11.6666667,3.33333333 C11.6666667,1.495 10.1716667,0 8.33333333,0 L6.66666667,0 C4.82833333,0 3.33333333,1.495 3.33333333,3.33333333 L3.33333333,6.66666667 L0,6.66666667 L0,10 L0,16.6666667 L0,45 L35,45 L35,16.6666667 L35,10 L35,6.66666667 L31.6666667,6.66666667 Z" fill="#231F1F"></path>
    </g>
</svg>