<?xml version="1.0" encoding="UTF-8" standalone="no"?>
<svg width="60px" height="60px" viewBox="0 0 60 60" version="1.1" xmlns="http://www.w3.org/2000/svg" xmlns:xlink="http://www.w3.org/1999/xlink">
    <!-- Generator: Sketch 3.7.2 (28276) - http://www.bohemiancoding.com/sketch -->
    <title>Combined Shape</title>
    <desc>Created with Sketch.</desc>
    <defs></defs>
    <g id="Page-1" stroke="none" stroke-width="1" fill="none" fill-rule="evenodd">
        <path d="M30,55.7142857 C15.8207143,55.7142857 4.28571429,44.1792857 4.28571429,30 C4.28571429,15.8207143 15.8207143,4.28571429 30,4.28571429 C44.1792857,4.28571429 55.7142857,15.8207143 55.7142857,30 C55.7142857,44.1792857 44.1792857,55.7142857 30,55.7142857 M30,0 C13.4314286,0 0,13.4314286 0,30 C0,46.5685714 13.4314286,60 30,60 C46.5685714,60 60,46.5685714 60,30 C60,13.4314286 46.5685714,0 30,0 Z M47.4107143,32.4985714 C46.0307143,32.4985714 44.9121429,31.38 44.9121429,30 C44.9121429,28.62 46.0307143,27.5014286 47.4107143,27.5014286 C48.7907143,27.5014286 49.9092857,28.62 49.9092857,30 C49.9092857,31.38 48.7907143,32.4985714 47.4107143,32.4985714 Z M46.8857143,40.5128571 C46.1528571,41.6807143 44.6078571,42.0342857 43.4421429,41.3014286 C42.2721429,40.5685714 41.9185714,39.0278571 42.6514286,37.8578571 C43.3842857,36.69 44.9292857,36.3364286 46.0971429,37.0692857 C47.265,37.8021429 47.6207143,39.345 46.8857143,40.5128571 Z M41.4257143,16.6842857 C40.6928571,17.8521429 39.1521429,18.2057143 37.9842857,17.4707143 C36.8142857,16.7378571 36.4628571,15.1971429 37.1935714,14.0271429 C37.9264286,12.8592857 39.4671429,12.5078571 40.6371429,13.2407143 C41.805,13.9735714 42.1585714,15.5142857 41.4257143,16.6842857 Z M40.0778571,47.0978571 C38.8885714,47.7921429 37.3564286,47.385 36.6621429,46.1957143 C35.9678571,45 36.3728571,43.4721429 37.5642857,42.7778571 C38.7557143,42.0857143 40.2878571,42.4885714 40.9821429,43.6821429 C41.6742857,44.8692857 41.2714286,46.4035714 40.0778571,47.0978571 Z M30.1264286,49.7828571 C28.7464286,49.7828571 27.6278571,48.6642857 27.6278571,47.2842857 C27.6278571,45.9064286 28.7464286,44.7857143 30.1264286,44.7857143 C31.5042857,44.7857143 32.625,45.9064286 32.625,47.2842857 C32.625,48.6642857 31.5042857,49.7828571 30.1264286,49.7828571 Z M22.6842857,17.2178571 C21.4907143,17.9121429 19.9628571,17.5071429 19.2685714,16.3157143 C18.5742857,15.1264286 18.9771429,13.5985714 20.1707143,12.9021429 C21.3642857,12.2078571 22.8921429,12.6128571 23.5864286,13.8021429 C24.2807143,14.9957143 23.8757143,16.5257143 22.6842857,17.2178571 Z M23.0571429,45.9707143 C22.3242857,47.1385714 20.7792857,47.4942857 19.6114286,46.7592857 C18.4435714,46.0264286 18.09,44.4835714 18.8228571,43.3157143 C19.5578571,42.1457143 21.0985714,41.7942857 22.2685714,42.5271429 C23.4342857,43.2578571 23.79,44.8028571 23.0571429,45.9707143 Z M17.5971429,22.1421429 C16.8642857,23.3121429 15.3214286,23.6635714 14.1535714,22.9307143 C12.9857143,22.1978571 12.6342857,20.6592857 13.365,19.4892857 C14.1,18.3214286 15.6407143,17.9678571 16.8085714,18.7007143 C17.9785714,19.4314286 18.33,20.9742857 17.5971429,22.1421429 Z M16.4442857,40.8557143 C15.255,41.55 13.7207143,41.145 13.0285714,39.9535714 C12.3342857,38.7621429 12.7392857,37.23 13.9307143,36.5378571 C15.1264286,35.8435714 16.6521429,36.2464286 17.3485714,37.44 C18.0407143,38.6292857 17.6357143,40.1614286 16.4442857,40.8557143 Z M10.3414286,30 C10.3414286,28.62 11.46,27.5014286 12.84,27.5014286 C14.2178571,27.5014286 15.3364286,28.62 15.3364286,30 C15.3364286,31.38 14.2178571,32.4985714 12.84,32.4985714 C11.46,32.4985714 10.3414286,31.38 10.3414286,30 Z M27.8571429,12.8571429 C27.8571429,11.6742857 28.8171429,10.7142857 30,10.7142857 C31.1828571,10.7142857 32.1428571,11.6742857 32.1428571,12.8571429 L32.1428571,26.97 L40.605,35.4342857 C41.4428571,36.2721429 41.4428571,37.6285714 40.605,38.4642857 C39.7692857,39.3021429 38.4128571,39.3021429 37.575,38.4642857 L28.4871429,29.3742857 C28.2878571,29.175 28.1314286,28.9371429 28.0221429,28.6757143 C27.915,28.4142857 27.8571429,28.1357143 27.8571429,27.8571429 L27.8571429,12.8571429 Z M43.8085714,19.1442857 C45,18.4478571 46.5278571,18.8528571 47.2221429,20.0442857 C47.9164286,21.2378571 47.5135714,22.7657143 46.3221429,23.46 C45.1307143,24.1542857 43.6007143,23.7492857 42.9064286,22.5578571 C42.2121429,21.3664286 42.6192857,19.8385714 43.8085714,19.1442857 Z M30,8.57142857 C18.1842857,8.57142857 8.57142857,18.1842857 8.57142857,30 C8.57142857,41.8157143 18.1842857,51.4285714 30,51.4285714 C41.8157143,51.4285714 51.4285714,41.8157143 51.4285714,30 C51.4285714,18.1842857 41.8157143,8.57142857 30,8.57142857 Z" id="Combined-Shape" fill="#000000"></path>
    </g>
</svg>