<?xml version="1.0" encoding="UTF-8" standalone="no"?>
<svg width="160px" height="11px" viewBox="0 0 160 11" version="1.1" xmlns="http://www.w3.org/2000/svg" xmlns:xlink="http://www.w3.org/1999/xlink">
    <!-- Generator: Sketch 3.7.2 (28276) - http://www.bohemiancoding.com/sketch -->
    <title>Page 1</title>
    <desc>Created with Sketch.</desc>
    <defs></defs>
    <g id="Page-1" stroke="none" stroke-width="1" fill="none" fill-rule="evenodd">
        <g fill="#221F20">
            <path d="M3.0752,4.5213 L9.4672,4.5213 C10.2832,4.5213 10.6852,4.1583 10.6712,3.4323 C10.6582,3.1363 10.5182,2.8943 10.2532,2.7063 C9.9872,2.5183 9.6912,2.4233 9.3642,2.4233 L3.0752,2.4233 L3.0752,4.5213 L3.0752,4.5213 Z M10.1952,6.6593 L3.0752,6.6593 L3.0752,10.2033 L0.0002,10.2033 L0.0002,0.2443 L10.1012,0.2443 C11.5402,0.2443 12.6402,0.5903 13.4002,1.2833 C14.0252,1.8533 14.3372,2.5593 14.3372,3.4013 C14.3372,4.3783 14.0042,5.1593 13.3372,5.7433 C12.6162,6.3543 11.5692,6.6593 10.1952,6.6593 L10.1952,6.6593 Z" id="Fill-1"></path>
            <path d="M19.7751,5.5395 L23.6041,5.5395 L21.6891,2.4035 L19.7751,5.5395 Z M13.3601,10.2035 L20.0801,0.2445 L23.3591,0.2445 L30.0191,10.2035 L26.4351,10.2035 L25.0091,7.8815 L18.3091,7.8815 L16.9441,10.2035 L13.3601,10.2035 Z" id="Fill-3"></path>
            <polygon id="Fill-5" points="43.3383 0.2445 43.3383 2.4235 37.3303 2.4235 37.3303 10.2035 34.2553 10.2035 34.2553 2.4235 28.2273 2.4235 28.2273 0.2445"></polygon>
            <polygon id="Fill-7" points="46.271 10.2038 49.387 10.2038 49.387 0.2448 46.271 0.2448"></polygon>
            <polygon id="Fill-9" points="52.6453 10.2033 52.6453 0.2443 64.7623 0.2443 64.7623 2.4233 55.7613 2.4233 55.7613 3.8493 63.3373 3.8493 62.2983 6.1103 55.7613 6.1103 55.7613 7.8413 64.7623 7.8413 64.7623 10.2033"></polygon>
            <polygon id="Fill-10" points="79.2428 0.2445 82.3588 0.2445 82.3588 10.2035 79.2378 10.2035 71.1578 3.3255 71.1578 10.2035 68.0418 10.2035 68.0418 0.2445 71.5448 0.2445 79.2428 6.7205"></polygon>
            <polygon id="Fill-11" points="95.8994 0.2445 97.3744 2.4235 94.3944 2.4235 88.3664 10.2035 85.2914 10.2035 91.3194 2.4235 85.2914 2.4235 85.2914 0.2445"></polygon>
            <polygon id="Fill-12" points="93.027 5.5395 96.191 5.5395 94.828 3.2265 97.941 3.2265 102.606 10.2035 99.022 10.2035 97.596 7.8815 91.186 7.8815"></polygon>
            <polygon id="Fill-13" points="116.9226 0.2445 116.9226 2.4235 110.9146 2.4235 110.9146 10.2035 107.8396 10.2035 107.8396 2.4235 101.8116 2.4235 101.8116 0.2445"></polygon>
            <polygon id="Fill-14" points="119.855 10.2038 122.971 10.2038 122.971 0.2448 119.855 0.2448"></polygon>
            <path d="M129.5287,5.2545 C129.5287,6.0695 130.0177,6.7485 130.9947,7.2905 C131.9177,7.8075 133.0037,8.0645 134.2537,8.0645 C135.5027,8.0645 136.5987,7.8005 137.5427,7.2705 C138.4857,6.7415 138.9577,6.0695 138.9577,5.2545 C138.9577,4.4265 138.4757,3.7345 137.5117,3.1775 C136.5887,2.6615 135.5027,2.4035 134.2537,2.4035 C133.0037,2.4035 131.9177,2.6615 130.9947,3.1775 C130.0177,3.7345 129.5287,4.4265 129.5287,5.2545 M142.6037,5.2345 C142.6037,6.9175 141.5917,8.2555 139.5687,9.2465 C137.9257,10.0475 136.1477,10.4475 134.2327,10.4475 C132.3317,10.4475 130.5607,10.0475 128.9177,9.2465 C126.8947,8.2415 125.8837,6.9045 125.8837,5.2345 C125.8837,3.5505 126.8947,2.2135 128.9177,1.2225 C130.5607,0.4075 132.3317,0.0005 134.2327,0.0005 C136.1477,0.0005 137.9257,0.4075 139.5687,1.2225 C141.5917,2.2135 142.6037,3.5505 142.6037,5.2345" id="Fill-15"></path>
            <polygon id="Fill-16" points="156.7372 0.2445 159.8532 0.2445 159.8532 10.2035 156.7332 10.2035 148.6522 3.3255 148.6522 10.2035 145.5362 10.2035 145.5362 0.2445 149.0392 0.2445 156.7372 6.7205"></polygon>
        </g>
    </g>
</svg>